# xmcd CD database file
# Generated: Tue Aug 14 12:38:34 2001 by KSCD
# 
# Track frame offsets:
#       150
#       5888
#       20543
#       33485
#       44603
#       54400
#       73175
#       91260
#       108655
#       123488
#       136175
#       151560
#       165638
#       178305
#       194415
#       210263
#
# Disc length: 3042 seconds
#
# Revision: 5
# Processed by: cddbd v1.4b42PL1 Copyright (c) Steve Scherf et al.
# Submitted via: Kscd 1.3.0
#
DISCID=dd0be010
DTITLE=Harry Wetterstein/Secret Blues
DYEAR=1900
DGENRE=
TTITLE0=Intro
TTITLE1=Listen
TTITLE2=You're My Friend
TTITLE3=Rainy Days
TTITLE4=Wanna Know For Sure
TTITLE5=My Baby Left Me
TTITLE6=Torcal
TTITLE7=Real Lovin'
TTITLE8=A Song For You
TTITLE9=You Still Don't Know
TTITLE10=I Will Fight
TTITLE11=Belive In Nowhere
TTITLE12=Don't You Understand
TTITLE13=Sad Song
TTITLE14=Rolling On
TTITLE15=Secret Blues
EXTD=
EXTT0=
EXTT1=
EXTT2=
EXTT3=
EXTT4=
EXTT5=
EXTT6=
EXTT7=
EXTT8=
EXTT9=
EXTT10=
EXTT11=
EXTT12=
EXTT13=
EXTT14=
EXTT15=
PLAYORDER=
